<svg width="173" height="25" viewBox="0 0 173 25" fill="none" xmlns="http://www.w3.org/2000/svg">
<mask id="path-1-outside-1" maskUnits="userSpaceOnUse" x="0" y="0" width="159" height="24" fill="black">
<rect fill="white" width="159" height="24"/>
<path d="M1 14.6625C1 13.1321 1.30483 11.777 1.9145 10.5969C2.54209 9.4169 3.38486 8.50423 4.44281 7.8589C5.51869 7.19513 6.71112 6.86325 8.02011 6.86325C8.9884 6.86325 9.93876 7.08451 10.8712 7.52702C11.8215 7.95109 12.5747 8.52266 13.1305 9.24174V1.88502H16.2237V22.3511H13.1305V20.0556C12.6285 20.7931 11.9291 21.4015 11.0326 21.8809C10.1539 22.3603 9.14081 22.6 7.99321 22.6C6.70216 22.6 5.51869 22.2681 4.44281 21.6044C3.38486 20.9222 2.54209 19.9818 1.9145 18.7834C1.30483 17.5665 1 16.1928 1 14.6625ZM13.1305 14.7178C13.1305 13.6668 12.9154 12.7542 12.485 11.9798C12.0726 11.2054 11.5257 10.6154 10.8443 10.2097C10.1629 9.8041 9.42771 9.60128 8.63874 9.60128C7.84976 9.60128 7.11458 9.8041 6.43319 10.2097C5.7518 10.5969 5.19593 11.1777 4.76557 11.9521C4.35315 12.7081 4.14694 13.6115 4.14694 14.6625C4.14694 15.7134 4.35315 16.6353 4.76557 17.4282C5.19593 18.221 5.7518 18.8294 6.43319 19.2535C7.13251 19.6592 7.86769 19.862 8.63874 19.862C9.42771 19.862 10.1629 19.6592 10.8443 19.2535C11.5257 18.8479 12.0726 18.2579 12.485 17.4835C12.9154 16.6907 13.1305 15.7688 13.1305 14.7178Z"/>
<path d="M33.834 14.3583C33.834 14.9298 33.7982 15.4461 33.7265 15.907H22.4028C22.4925 17.1239 22.9318 18.1012 23.7208 18.8387C24.5098 19.5762 25.4781 19.9449 26.6257 19.9449C28.2753 19.9449 29.4409 19.2351 30.1223 17.8154H33.4306C32.9823 19.2166 32.1664 20.369 30.983 21.2725C29.8174 22.1575 28.365 22.6 26.6257 22.6C25.2091 22.6 23.936 22.2773 22.8063 21.632C21.6945 20.9682 20.8159 20.0464 20.1704 18.8663C19.5428 17.6679 19.229 16.285 19.229 14.7178C19.229 13.1506 19.5338 11.777 20.1435 10.5969C20.7711 9.39846 21.6408 8.47657 22.7525 7.83124C23.8822 7.18592 25.1732 6.86325 26.6257 6.86325C28.0243 6.86325 29.2705 7.1767 30.3643 7.80359C31.4581 8.43047 32.3099 9.31549 32.9195 10.4586C33.5292 11.5834 33.834 12.8832 33.834 14.3583ZM30.6333 13.3626C30.6154 12.201 30.2119 11.2699 29.4229 10.5693C28.634 9.86863 27.6567 9.51831 26.4912 9.51831C25.4332 9.51831 24.5277 9.86863 23.7746 10.5693C23.0215 11.2515 22.5732 12.1826 22.4297 13.3626H30.6333Z"/>
<path d="M42.5806 19.5301L46.7765 7.11216H50.031L44.3827 22.3511H40.7247L35.1032 7.11216H38.3847L42.5806 19.5301Z"/>
<path d="M53.5861 22.5447C53.0302 22.5447 52.564 22.3511 52.1874 21.9639C51.8109 21.5767 51.6226 21.0973 51.6226 20.5257C51.6226 19.9542 51.8109 19.4748 52.1874 19.0876C52.564 18.7004 53.0302 18.5068 53.5861 18.5068C54.124 18.5068 54.5813 18.7004 54.9578 19.0876C55.3344 19.4748 55.5226 19.9542 55.5226 20.5257C55.5226 21.0973 55.3344 21.5767 54.9578 21.9639C54.5813 22.3511 54.124 22.5447 53.5861 22.5447Z"/>
<path d="M65.0499 9.68425H62.3064V22.3511H59.2132V9.68425H57.4649V7.11216H59.2132V6.03355C59.2132 4.28194 59.6615 3.00973 60.5581 2.2169C61.4726 1.40563 62.8981 1 64.8347 1V3.6274C63.9022 3.6274 63.2478 3.81178 62.8712 4.18054C62.4946 4.53086 62.3064 5.14853 62.3064 6.03355V7.11216H65.0499V9.68425Z"/>
<path d="M69.3273 5.09321C68.7714 5.09321 68.3052 4.89962 67.9287 4.51242C67.5521 4.12522 67.3638 3.64584 67.3638 3.07426C67.3638 2.50269 67.5521 2.0233 67.9287 1.63611C68.3052 1.24891 68.7714 1.05531 69.3273 1.05531C69.8652 1.05531 70.3225 1.24891 70.6991 1.63611C71.0756 2.0233 71.2639 2.50269 71.2639 3.07426C71.2639 3.64584 71.0756 4.12522 70.6991 4.51242C70.3225 4.89962 69.8652 5.09321 69.3273 5.09321ZM70.8335 7.11216V22.3511H67.7673V7.11216H70.8335Z"/>
<path d="M82.3366 6.86325C83.5021 6.86325 84.5422 7.11216 85.4566 7.60999C86.3891 8.10781 87.1153 8.84533 87.6353 9.82254C88.1553 10.7997 88.4153 11.9798 88.4153 13.3626V22.3511H85.376V13.8328C85.376 12.4684 85.0442 11.4266 84.3808 10.7076C83.7173 9.97004 82.8118 9.60128 81.6642 9.60128C80.5166 9.60128 79.6021 9.97004 78.9207 10.7076C78.2572 11.4266 77.9255 12.4684 77.9255 13.8328V22.3511H74.8593V7.11216H77.9255V8.85455C78.4276 8.22766 79.0641 7.73905 79.8352 7.38873C80.6242 7.03841 81.458 6.86325 82.3366 6.86325Z"/>
<path d="M91.3044 14.6625C91.3044 13.1321 91.6093 11.777 92.2189 10.5969C92.8465 9.4169 93.6893 8.50423 94.7472 7.8589C95.8231 7.19513 97.0066 6.86325 98.2976 6.86325C99.4632 6.86325 100.476 7.10295 101.337 7.58233C102.216 8.04328 102.915 8.62407 103.435 9.32471V7.11216H106.528V22.3511H103.435V20.0832C102.915 20.8023 102.207 21.4015 101.31 21.8809C100.414 22.3603 99.3914 22.6 98.2438 22.6C96.9707 22.6 95.8052 22.2681 94.7472 21.6044C93.6893 20.9222 92.8465 19.9818 92.2189 18.7834C91.6093 17.5665 91.3044 16.1928 91.3044 14.6625ZM103.435 14.7178C103.435 13.6668 103.22 12.7542 102.789 11.9798C102.377 11.2054 101.83 10.6154 101.149 10.2097C100.467 9.8041 99.7321 9.60128 98.9432 9.60128C98.1542 9.60128 97.419 9.8041 96.7376 10.2097C96.0562 10.5969 95.5004 11.1777 95.07 11.9521C94.6576 12.7081 94.4514 13.6115 94.4514 14.6625C94.4514 15.7134 94.6576 16.6353 95.07 17.4282C95.5004 18.221 96.0562 18.8294 96.7376 19.2535C97.4369 19.6592 98.1721 19.862 98.9432 19.862C99.7321 19.862 100.467 19.6592 101.149 19.2535C101.83 18.8479 102.377 18.2579 102.789 17.4835C103.22 16.6907 103.435 15.7688 103.435 14.7178Z"/>
<path d="M118.033 6.86325C119.198 6.86325 120.238 7.11216 121.153 7.60999C122.085 8.10781 122.812 8.84533 123.332 9.82254C123.852 10.7997 124.112 11.9798 124.112 13.3626V22.3511H121.072V13.8328C121.072 12.4684 120.74 11.4266 120.077 10.7076C119.414 9.97004 118.508 9.60128 117.36 9.60128C116.213 9.60128 115.298 9.97004 114.617 10.7076C113.953 11.4266 113.622 12.4684 113.622 13.8328V22.3511H110.556V7.11216H113.622V8.85455C114.124 8.22766 114.76 7.73905 115.531 7.38873C116.32 7.03841 117.154 6.86325 118.033 6.86325Z"/>
<path d="M127.001 14.7178C127.001 13.1506 127.306 11.777 127.915 10.5969C128.543 9.39846 129.403 8.47657 130.497 7.83124C131.591 7.18592 132.846 6.86325 134.263 6.86325C136.056 6.86325 137.535 7.30576 138.701 8.19078C139.884 9.05736 140.682 10.3019 141.095 11.9245H137.786C137.517 11.1685 137.087 10.5785 136.495 10.1544C135.904 9.73035 135.159 9.51831 134.263 9.51831C133.008 9.51831 132.004 9.97926 131.25 10.9012C130.515 11.8046 130.148 13.0768 130.148 14.7178C130.148 16.3588 130.515 17.6402 131.25 18.5621C132.004 19.484 133.008 19.9449 134.263 19.9449C136.038 19.9449 137.213 19.1429 137.786 17.5388H141.095C140.664 19.0876 139.857 20.3229 138.674 21.2448C137.49 22.1483 136.02 22.6 134.263 22.6C132.846 22.6 131.591 22.2773 130.497 21.632C129.403 20.9682 128.543 20.0464 127.915 18.8663C127.306 17.6679 127.001 16.285 127.001 14.7178Z"/>
<path d="M157.733 14.3583C157.733 14.9298 157.698 15.4461 157.626 15.907H146.302C146.392 17.1239 146.831 18.1012 147.62 18.8387C148.409 19.5762 149.377 19.9449 150.525 19.9449C152.175 19.9449 153.34 19.2351 154.022 17.8154H157.33C156.882 19.2166 156.066 20.369 154.882 21.2725C153.717 22.1575 152.264 22.6 150.525 22.6C149.108 22.6 147.835 22.2773 146.706 21.632C145.594 20.9682 144.715 20.0464 144.07 18.8663C143.442 17.6679 143.128 16.285 143.128 14.7178C143.128 13.1506 143.433 11.777 144.043 10.5969C144.67 9.39846 145.54 8.47657 146.652 7.83124C147.782 7.18592 149.073 6.86325 150.525 6.86325C151.924 6.86325 153.17 7.1767 154.264 7.80359C155.358 8.43047 156.209 9.31549 156.819 10.4586C157.429 11.5834 157.733 12.8832 157.733 14.3583ZM154.533 13.3626C154.515 12.201 154.111 11.2699 153.322 10.5693C152.533 9.86863 151.556 9.51831 150.391 9.51831C149.333 9.51831 148.427 9.86863 147.674 10.5693C146.921 11.2515 146.473 12.1826 146.329 13.3626H154.533Z"/>
</mask>
<path d="M1 14.6625C1 13.1321 1.30483 11.777 1.9145 10.5969C2.54209 9.4169 3.38486 8.50423 4.44281 7.8589C5.51869 7.19513 6.71112 6.86325 8.02011 6.86325C8.9884 6.86325 9.93876 7.08451 10.8712 7.52702C11.8215 7.95109 12.5747 8.52266 13.1305 9.24174V1.88502H16.2237V22.3511H13.1305V20.0556C12.6285 20.7931 11.9291 21.4015 11.0326 21.8809C10.1539 22.3603 9.14081 22.6 7.99321 22.6C6.70216 22.6 5.51869 22.2681 4.44281 21.6044C3.38486 20.9222 2.54209 19.9818 1.9145 18.7834C1.30483 17.5665 1 16.1928 1 14.6625ZM13.1305 14.7178C13.1305 13.6668 12.9154 12.7542 12.485 11.9798C12.0726 11.2054 11.5257 10.6154 10.8443 10.2097C10.1629 9.8041 9.42771 9.60128 8.63874 9.60128C7.84976 9.60128 7.11458 9.8041 6.43319 10.2097C5.7518 10.5969 5.19593 11.1777 4.76557 11.9521C4.35315 12.7081 4.14694 13.6115 4.14694 14.6625C4.14694 15.7134 4.35315 16.6353 4.76557 17.4282C5.19593 18.221 5.7518 18.8294 6.43319 19.2535C7.13251 19.6592 7.86769 19.862 8.63874 19.862C9.42771 19.862 10.1629 19.6592 10.8443 19.2535C11.5257 18.8479 12.0726 18.2579 12.485 17.4835C12.9154 16.6907 13.1305 15.7688 13.1305 14.7178Z" fill="#49AA26"/>
<path d="M33.834 14.3583C33.834 14.9298 33.7982 15.4461 33.7265 15.907H22.4028C22.4925 17.1239 22.9318 18.1012 23.7208 18.8387C24.5098 19.5762 25.4781 19.9449 26.6257 19.9449C28.2753 19.9449 29.4409 19.2351 30.1223 17.8154H33.4306C32.9823 19.2166 32.1664 20.369 30.983 21.2725C29.8174 22.1575 28.365 22.6 26.6257 22.6C25.2091 22.6 23.936 22.2773 22.8063 21.632C21.6945 20.9682 20.8159 20.0464 20.1704 18.8663C19.5428 17.6679 19.229 16.285 19.229 14.7178C19.229 13.1506 19.5338 11.777 20.1435 10.5969C20.7711 9.39846 21.6408 8.47657 22.7525 7.83124C23.8822 7.18592 25.1732 6.86325 26.6257 6.86325C28.0243 6.86325 29.2705 7.1767 30.3643 7.80359C31.4581 8.43047 32.3099 9.31549 32.9195 10.4586C33.5292 11.5834 33.834 12.8832 33.834 14.3583ZM30.6333 13.3626C30.6154 12.201 30.2119 11.2699 29.4229 10.5693C28.634 9.86863 27.6567 9.51831 26.4912 9.51831C25.4332 9.51831 24.5277 9.86863 23.7746 10.5693C23.0215 11.2515 22.5732 12.1826 22.4297 13.3626H30.6333Z" fill="#49AA26"/>
<path d="M42.5806 19.5301L46.7765 7.11216H50.031L44.3827 22.3511H40.7247L35.1032 7.11216H38.3847L42.5806 19.5301Z" fill="#49AA26"/>
<path d="M53.5861 22.5447C53.0302 22.5447 52.564 22.3511 52.1874 21.9639C51.8109 21.5767 51.6226 21.0973 51.6226 20.5257C51.6226 19.9542 51.8109 19.4748 52.1874 19.0876C52.564 18.7004 53.0302 18.5068 53.5861 18.5068C54.124 18.5068 54.5813 18.7004 54.9578 19.0876C55.3344 19.4748 55.5226 19.9542 55.5226 20.5257C55.5226 21.0973 55.3344 21.5767 54.9578 21.9639C54.5813 22.3511 54.124 22.5447 53.5861 22.5447Z" fill="#49AA26"/>
<path d="M65.0499 9.68425H62.3064V22.3511H59.2132V9.68425H57.4649V7.11216H59.2132V6.03355C59.2132 4.28194 59.6615 3.00973 60.5581 2.2169C61.4726 1.40563 62.8981 1 64.8347 1V3.6274C63.9022 3.6274 63.2478 3.81178 62.8712 4.18054C62.4946 4.53086 62.3064 5.14853 62.3064 6.03355V7.11216H65.0499V9.68425Z" fill="#49AA26"/>
<path d="M69.3273 5.09321C68.7714 5.09321 68.3052 4.89962 67.9287 4.51242C67.5521 4.12522 67.3638 3.64584 67.3638 3.07426C67.3638 2.50269 67.5521 2.0233 67.9287 1.63611C68.3052 1.24891 68.7714 1.05531 69.3273 1.05531C69.8652 1.05531 70.3225 1.24891 70.6991 1.63611C71.0756 2.0233 71.2639 2.50269 71.2639 3.07426C71.2639 3.64584 71.0756 4.12522 70.6991 4.51242C70.3225 4.89962 69.8652 5.09321 69.3273 5.09321ZM70.8335 7.11216V22.3511H67.7673V7.11216H70.8335Z" fill="#49AA26"/>
<path d="M82.3366 6.86325C83.5021 6.86325 84.5422 7.11216 85.4566 7.60999C86.3891 8.10781 87.1153 8.84533 87.6353 9.82254C88.1553 10.7997 88.4153 11.9798 88.4153 13.3626V22.3511H85.376V13.8328C85.376 12.4684 85.0442 11.4266 84.3808 10.7076C83.7173 9.97004 82.8118 9.60128 81.6642 9.60128C80.5166 9.60128 79.6021 9.97004 78.9207 10.7076C78.2572 11.4266 77.9255 12.4684 77.9255 13.8328V22.3511H74.8593V7.11216H77.9255V8.85455C78.4276 8.22766 79.0641 7.73905 79.8352 7.38873C80.6242 7.03841 81.458 6.86325 82.3366 6.86325Z" fill="#49AA26"/>
<path d="M91.3044 14.6625C91.3044 13.1321 91.6093 11.777 92.2189 10.5969C92.8465 9.4169 93.6893 8.50423 94.7472 7.8589C95.8231 7.19513 97.0066 6.86325 98.2976 6.86325C99.4632 6.86325 100.476 7.10295 101.337 7.58233C102.216 8.04328 102.915 8.62407 103.435 9.32471V7.11216H106.528V22.3511H103.435V20.0832C102.915 20.8023 102.207 21.4015 101.31 21.8809C100.414 22.3603 99.3914 22.6 98.2438 22.6C96.9707 22.6 95.8052 22.2681 94.7472 21.6044C93.6893 20.9222 92.8465 19.9818 92.2189 18.7834C91.6093 17.5665 91.3044 16.1928 91.3044 14.6625ZM103.435 14.7178C103.435 13.6668 103.22 12.7542 102.789 11.9798C102.377 11.2054 101.83 10.6154 101.149 10.2097C100.467 9.8041 99.7321 9.60128 98.9432 9.60128C98.1542 9.60128 97.419 9.8041 96.7376 10.2097C96.0562 10.5969 95.5004 11.1777 95.07 11.9521C94.6576 12.7081 94.4514 13.6115 94.4514 14.6625C94.4514 15.7134 94.6576 16.6353 95.07 17.4282C95.5004 18.221 96.0562 18.8294 96.7376 19.2535C97.4369 19.6592 98.1721 19.862 98.9432 19.862C99.7321 19.862 100.467 19.6592 101.149 19.2535C101.83 18.8479 102.377 18.2579 102.789 17.4835C103.22 16.6907 103.435 15.7688 103.435 14.7178Z" fill="#49AA26"/>
<path d="M118.033 6.86325C119.198 6.86325 120.238 7.11216 121.153 7.60999C122.085 8.10781 122.812 8.84533 123.332 9.82254C123.852 10.7997 124.112 11.9798 124.112 13.3626V22.3511H121.072V13.8328C121.072 12.4684 120.74 11.4266 120.077 10.7076C119.414 9.97004 118.508 9.60128 117.36 9.60128C116.213 9.60128 115.298 9.97004 114.617 10.7076C113.953 11.4266 113.622 12.4684 113.622 13.8328V22.3511H110.556V7.11216H113.622V8.85455C114.124 8.22766 114.76 7.73905 115.531 7.38873C116.32 7.03841 117.154 6.86325 118.033 6.86325Z" fill="#49AA26"/>
<path d="M127.001 14.7178C127.001 13.1506 127.306 11.777 127.915 10.5969C128.543 9.39846 129.403 8.47657 130.497 7.83124C131.591 7.18592 132.846 6.86325 134.263 6.86325C136.056 6.86325 137.535 7.30576 138.701 8.19078C139.884 9.05736 140.682 10.3019 141.095 11.9245H137.786C137.517 11.1685 137.087 10.5785 136.495 10.1544C135.904 9.73035 135.159 9.51831 134.263 9.51831C133.008 9.51831 132.004 9.97926 131.25 10.9012C130.515 11.8046 130.148 13.0768 130.148 14.7178C130.148 16.3588 130.515 17.6402 131.25 18.5621C132.004 19.484 133.008 19.9449 134.263 19.9449C136.038 19.9449 137.213 19.1429 137.786 17.5388H141.095C140.664 19.0876 139.857 20.3229 138.674 21.2448C137.49 22.1483 136.02 22.6 134.263 22.6C132.846 22.6 131.591 22.2773 130.497 21.632C129.403 20.9682 128.543 20.0464 127.915 18.8663C127.306 17.6679 127.001 16.285 127.001 14.7178Z" fill="#49AA26"/>
<path d="M157.733 14.3583C157.733 14.9298 157.698 15.4461 157.626 15.907H146.302C146.392 17.1239 146.831 18.1012 147.62 18.8387C148.409 19.5762 149.377 19.9449 150.525 19.9449C152.175 19.9449 153.34 19.2351 154.022 17.8154H157.33C156.882 19.2166 156.066 20.369 154.882 21.2725C153.717 22.1575 152.264 22.6 150.525 22.6C149.108 22.6 147.835 22.2773 146.706 21.632C145.594 20.9682 144.715 20.0464 144.07 18.8663C143.442 17.6679 143.128 16.285 143.128 14.7178C143.128 13.1506 143.433 11.777 144.043 10.5969C144.67 9.39846 145.54 8.47657 146.652 7.83124C147.782 7.18592 149.073 6.86325 150.525 6.86325C151.924 6.86325 153.17 7.1767 154.264 7.80359C155.358 8.43047 156.209 9.31549 156.819 10.4586C157.429 11.5834 157.733 12.8832 157.733 14.3583ZM154.533 13.3626C154.515 12.201 154.111 11.2699 153.322 10.5693C152.533 9.86863 151.556 9.51831 150.391 9.51831C149.333 9.51831 148.427 9.86863 147.674 10.5693C146.921 11.2515 146.473 12.1826 146.329 13.3626H154.533Z" fill="#49AA26"/>
<path d="M1 14.6625C1 13.1321 1.30483 11.777 1.9145 10.5969C2.54209 9.4169 3.38486 8.50423 4.44281 7.8589C5.51869 7.19513 6.71112 6.86325 8.02011 6.86325C8.9884 6.86325 9.93876 7.08451 10.8712 7.52702C11.8215 7.95109 12.5747 8.52266 13.1305 9.24174V1.88502H16.2237V22.3511H13.1305V20.0556C12.6285 20.7931 11.9291 21.4015 11.0326 21.8809C10.1539 22.3603 9.14081 22.6 7.99321 22.6C6.70216 22.6 5.51869 22.2681 4.44281 21.6044C3.38486 20.9222 2.54209 19.9818 1.9145 18.7834C1.30483 17.5665 1 16.1928 1 14.6625ZM13.1305 14.7178C13.1305 13.6668 12.9154 12.7542 12.485 11.9798C12.0726 11.2054 11.5257 10.6154 10.8443 10.2097C10.1629 9.8041 9.42771 9.60128 8.63874 9.60128C7.84976 9.60128 7.11458 9.8041 6.43319 10.2097C5.7518 10.5969 5.19593 11.1777 4.76557 11.9521C4.35315 12.7081 4.14694 13.6115 4.14694 14.6625C4.14694 15.7134 4.35315 16.6353 4.76557 17.4282C5.19593 18.221 5.7518 18.8294 6.43319 19.2535C7.13251 19.6592 7.86769 19.862 8.63874 19.862C9.42771 19.862 10.1629 19.6592 10.8443 19.2535C11.5257 18.8479 12.0726 18.2579 12.485 17.4835C12.9154 16.6907 13.1305 15.7688 13.1305 14.7178Z" stroke="white" stroke-width="1.2" mask="url(#path-1-outside-1)"/>
<path d="M33.834 14.3583C33.834 14.9298 33.7982 15.4461 33.7265 15.907H22.4028C22.4925 17.1239 22.9318 18.1012 23.7208 18.8387C24.5098 19.5762 25.4781 19.9449 26.6257 19.9449C28.2753 19.9449 29.4409 19.2351 30.1223 17.8154H33.4306C32.9823 19.2166 32.1664 20.369 30.983 21.2725C29.8174 22.1575 28.365 22.6 26.6257 22.6C25.2091 22.6 23.936 22.2773 22.8063 21.632C21.6945 20.9682 20.8159 20.0464 20.1704 18.8663C19.5428 17.6679 19.229 16.285 19.229 14.7178C19.229 13.1506 19.5338 11.777 20.1435 10.5969C20.7711 9.39846 21.6408 8.47657 22.7525 7.83124C23.8822 7.18592 25.1732 6.86325 26.6257 6.86325C28.0243 6.86325 29.2705 7.1767 30.3643 7.80359C31.4581 8.43047 32.3099 9.31549 32.9195 10.4586C33.5292 11.5834 33.834 12.8832 33.834 14.3583ZM30.6333 13.3626C30.6154 12.201 30.2119 11.2699 29.4229 10.5693C28.634 9.86863 27.6567 9.51831 26.4912 9.51831C25.4332 9.51831 24.5277 9.86863 23.7746 10.5693C23.0215 11.2515 22.5732 12.1826 22.4297 13.3626H30.6333Z" stroke="white" stroke-width="1.2" mask="url(#path-1-outside-1)"/>
<path d="M42.5806 19.5301L46.7765 7.11216H50.031L44.3827 22.3511H40.7247L35.1032 7.11216H38.3847L42.5806 19.5301Z" stroke="white" stroke-width="1.2" mask="url(#path-1-outside-1)"/>
<path d="M53.5861 22.5447C53.0302 22.5447 52.564 22.3511 52.1874 21.9639C51.8109 21.5767 51.6226 21.0973 51.6226 20.5257C51.6226 19.9542 51.8109 19.4748 52.1874 19.0876C52.564 18.7004 53.0302 18.5068 53.5861 18.5068C54.124 18.5068 54.5813 18.7004 54.9578 19.0876C55.3344 19.4748 55.5226 19.9542 55.5226 20.5257C55.5226 21.0973 55.3344 21.5767 54.9578 21.9639C54.5813 22.3511 54.124 22.5447 53.5861 22.5447Z" stroke="white" stroke-width="1.2" mask="url(#path-1-outside-1)"/>
<path d="M65.0499 9.68425H62.3064V22.3511H59.2132V9.68425H57.4649V7.11216H59.2132V6.03355C59.2132 4.28194 59.6615 3.00973 60.5581 2.2169C61.4726 1.40563 62.8981 1 64.8347 1V3.6274C63.9022 3.6274 63.2478 3.81178 62.8712 4.18054C62.4946 4.53086 62.3064 5.14853 62.3064 6.03355V7.11216H65.0499V9.68425Z" stroke="white" stroke-width="1.2" mask="url(#path-1-outside-1)"/>
<path d="M69.3273 5.09321C68.7714 5.09321 68.3052 4.89962 67.9287 4.51242C67.5521 4.12522 67.3638 3.64584 67.3638 3.07426C67.3638 2.50269 67.5521 2.0233 67.9287 1.63611C68.3052 1.24891 68.7714 1.05531 69.3273 1.05531C69.8652 1.05531 70.3225 1.24891 70.6991 1.63611C71.0756 2.0233 71.2639 2.50269 71.2639 3.07426C71.2639 3.64584 71.0756 4.12522 70.6991 4.51242C70.3225 4.89962 69.8652 5.09321 69.3273 5.09321ZM70.8335 7.11216V22.3511H67.7673V7.11216H70.8335Z" stroke="white" stroke-width="1.2" mask="url(#path-1-outside-1)"/>
<path d="M82.3366 6.86325C83.5021 6.86325 84.5422 7.11216 85.4566 7.60999C86.3891 8.10781 87.1153 8.84533 87.6353 9.82254C88.1553 10.7997 88.4153 11.9798 88.4153 13.3626V22.3511H85.376V13.8328C85.376 12.4684 85.0442 11.4266 84.3808 10.7076C83.7173 9.97004 82.8118 9.60128 81.6642 9.60128C80.5166 9.60128 79.6021 9.97004 78.9207 10.7076C78.2572 11.4266 77.9255 12.4684 77.9255 13.8328V22.3511H74.8593V7.11216H77.9255V8.85455C78.4276 8.22766 79.0641 7.73905 79.8352 7.38873C80.6242 7.03841 81.458 6.86325 82.3366 6.86325Z" stroke="white" stroke-width="1.2" mask="url(#path-1-outside-1)"/>
<path d="M91.3044 14.6625C91.3044 13.1321 91.6093 11.777 92.2189 10.5969C92.8465 9.4169 93.6893 8.50423 94.7472 7.8589C95.8231 7.19513 97.0066 6.86325 98.2976 6.86325C99.4632 6.86325 100.476 7.10295 101.337 7.58233C102.216 8.04328 102.915 8.62407 103.435 9.32471V7.11216H106.528V22.3511H103.435V20.0832C102.915 20.8023 102.207 21.4015 101.31 21.8809C100.414 22.3603 99.3914 22.6 98.2438 22.6C96.9707 22.6 95.8052 22.2681 94.7472 21.6044C93.6893 20.9222 92.8465 19.9818 92.2189 18.7834C91.6093 17.5665 91.3044 16.1928 91.3044 14.6625ZM103.435 14.7178C103.435 13.6668 103.22 12.7542 102.789 11.9798C102.377 11.2054 101.83 10.6154 101.149 10.2097C100.467 9.8041 99.7321 9.60128 98.9432 9.60128C98.1542 9.60128 97.419 9.8041 96.7376 10.2097C96.0562 10.5969 95.5004 11.1777 95.07 11.9521C94.6576 12.7081 94.4514 13.6115 94.4514 14.6625C94.4514 15.7134 94.6576 16.6353 95.07 17.4282C95.5004 18.221 96.0562 18.8294 96.7376 19.2535C97.4369 19.6592 98.1721 19.862 98.9432 19.862C99.7321 19.862 100.467 19.6592 101.149 19.2535C101.83 18.8479 102.377 18.2579 102.789 17.4835C103.22 16.6907 103.435 15.7688 103.435 14.7178Z" stroke="white" stroke-width="1.2" mask="url(#path-1-outside-1)"/>
<path d="M118.033 6.86325C119.198 6.86325 120.238 7.11216 121.153 7.60999C122.085 8.10781 122.812 8.84533 123.332 9.82254C123.852 10.7997 124.112 11.9798 124.112 13.3626V22.3511H121.072V13.8328C121.072 12.4684 120.74 11.4266 120.077 10.7076C119.414 9.97004 118.508 9.60128 117.36 9.60128C116.213 9.60128 115.298 9.97004 114.617 10.7076C113.953 11.4266 113.622 12.4684 113.622 13.8328V22.3511H110.556V7.11216H113.622V8.85455C114.124 8.22766 114.76 7.73905 115.531 7.38873C116.32 7.03841 117.154 6.86325 118.033 6.86325Z" stroke="white" stroke-width="1.2" mask="url(#path-1-outside-1)"/>
<path d="M127.001 14.7178C127.001 13.1506 127.306 11.777 127.915 10.5969C128.543 9.39846 129.403 8.47657 130.497 7.83124C131.591 7.18592 132.846 6.86325 134.263 6.86325C136.056 6.86325 137.535 7.30576 138.701 8.19078C139.884 9.05736 140.682 10.3019 141.095 11.9245H137.786C137.517 11.1685 137.087 10.5785 136.495 10.1544C135.904 9.73035 135.159 9.51831 134.263 9.51831C133.008 9.51831 132.004 9.97926 131.25 10.9012C130.515 11.8046 130.148 13.0768 130.148 14.7178C130.148 16.3588 130.515 17.6402 131.25 18.5621C132.004 19.484 133.008 19.9449 134.263 19.9449C136.038 19.9449 137.213 19.1429 137.786 17.5388H141.095C140.664 19.0876 139.857 20.3229 138.674 21.2448C137.49 22.1483 136.02 22.6 134.263 22.6C132.846 22.6 131.591 22.2773 130.497 21.632C129.403 20.9682 128.543 20.0464 127.915 18.8663C127.306 17.6679 127.001 16.285 127.001 14.7178Z" stroke="white" stroke-width="1.2" mask="url(#path-1-outside-1)"/>
<path d="M157.733 14.3583C157.733 14.9298 157.698 15.4461 157.626 15.907H146.302C146.392 17.1239 146.831 18.1012 147.62 18.8387C148.409 19.5762 149.377 19.9449 150.525 19.9449C152.175 19.9449 153.34 19.2351 154.022 17.8154H157.33C156.882 19.2166 156.066 20.369 154.882 21.2725C153.717 22.1575 152.264 22.6 150.525 22.6C149.108 22.6 147.835 22.2773 146.706 21.632C145.594 20.9682 144.715 20.0464 144.07 18.8663C143.442 17.6679 143.128 16.285 143.128 14.7178C143.128 13.1506 143.433 11.777 144.043 10.5969C144.67 9.39846 145.54 8.47657 146.652 7.83124C147.782 7.18592 149.073 6.86325 150.525 6.86325C151.924 6.86325 153.17 7.1767 154.264 7.80359C155.358 8.43047 156.209 9.31549 156.819 10.4586C157.429 11.5834 157.733 12.8832 157.733 14.3583ZM154.533 13.3626C154.515 12.201 154.111 11.2699 153.322 10.5693C152.533 9.86863 151.556 9.51831 150.391 9.51831C149.333 9.51831 148.427 9.86863 147.674 10.5693C146.921 11.2515 146.473 12.1826 146.329 13.3626H154.533Z" stroke="white" stroke-width="1.2" mask="url(#path-1-outside-1)"/>
<path d="M53.5864 22.5447C53.0305 22.5447 52.5643 22.3511 52.1878 21.9639C51.8112 21.5767 51.6229 21.0974 51.6229 20.5258C51.6229 19.9542 51.8112 19.4748 52.1878 19.0876C52.5643 18.7004 53.0305 18.5068 53.5864 18.5068C54.1243 18.5068 54.5816 18.7004 54.9581 19.0876C55.3347 19.4748 55.523 19.9542 55.523 20.5258C55.523 21.0974 55.3347 21.5767 54.9581 21.9639C54.5816 22.3511 54.1243 22.5447 53.5864 22.5447Z" fill="#49AA26"/>
<path d="M53.5864 22.5447C53.0305 22.5447 52.5643 22.3511 52.1878 21.9639C51.8112 21.5767 51.6229 21.0974 51.6229 20.5258C51.6229 19.9542 51.8112 19.4748 52.1878 19.0876C52.5643 18.7004 53.0305 18.5068 53.5864 18.5068C54.1243 18.5068 54.5816 18.7004 54.9581 19.0876C55.3347 19.4748 55.523 19.9542 55.523 20.5258C55.523 21.0974 55.3347 21.5767 54.9581 21.9639C54.5816 22.3511 54.1243 22.5447 53.5864 22.5447Z" stroke="black"/>
<path d="M173 18.325C173 19.1057 172.773 19.8396 172.321 20.5266C171.887 21.2136 171.235 21.7914 170.366 22.2598C169.516 22.7282 168.502 23.0093 167.326 23.103V25.0001H165.561V23.103C163.86 22.9624 162.485 22.5018 161.435 21.7211C160.386 20.9404 159.861 19.9099 159.861 18.6295H163.173C163.227 19.2384 163.453 19.7459 163.851 20.1519C164.249 20.5422 164.819 20.7921 165.561 20.9014V15.7487C164.349 15.4832 163.363 15.2178 162.603 14.9523C161.842 14.6713 161.191 14.2341 160.648 13.6407C160.123 13.0474 159.861 12.2355 159.861 11.2049C159.861 9.90894 160.386 8.83936 161.435 7.99619C162.485 7.13741 163.86 6.63776 165.561 6.49723V4.6001H167.326V6.49723C168.919 6.62214 170.194 7.05934 171.154 7.80882C172.131 8.54269 172.683 9.55762 172.81 10.8536H169.498C169.443 10.3696 169.226 9.94017 168.846 9.56543C168.466 9.17507 167.959 8.90963 167.326 8.7691V13.8281C168.539 14.0779 169.525 14.3434 170.285 14.6244C171.045 14.8899 171.688 15.3193 172.212 15.9126C172.737 16.4903 173 17.2945 173 18.325ZM163.01 11.0644C163.01 11.7046 163.227 12.2042 163.661 12.5634C164.114 12.9225 164.747 13.2113 165.561 13.4299V8.69883C164.783 8.77691 164.159 9.01893 163.688 9.4249C163.236 9.83087 163.01 10.3774 163.01 11.0644ZM167.326 20.9014C168.122 20.7921 168.747 20.5188 169.199 20.0816C169.652 19.6288 169.878 19.0901 169.878 18.4655C169.878 17.841 169.652 17.3569 169.199 17.0134C168.765 16.6543 168.14 16.3654 167.326 16.1468V20.9014Z" fill="#49AA26"/>
</svg>
